<svg
   xmlns:dc="http://purl.org/dc/elements/1.1/"
   xmlns:cc="http://creativecommons.org/ns#"
   xmlns:rdf="http://www.w3.org/1999/02/22-rdf-syntax-ns#"
   xmlns:svg="http://www.w3.org/2000/svg"
   xmlns="http://www.w3.org/2000/svg"
   xmlns:sodipodi="http://sodipodi.sourceforge.net/DTD/sodipodi-0.dtd"
   xmlns:inkscape="http://www.inkscape.org/namespaces/inkscape"
   width="144.90974mm"
   height="23.964403mm"
   viewBox="0 0 144.90974 23.964403"
   version="1.1"
   id="svg8"
   inkscape:version="0.92.1 r15371"
   sodipodi:docname="logo1green.svg">
  <defs
     id="defs2">
    <clipPath
       id="clipPath3720"
       clipPathUnits="userSpaceOnUse">
      <path
         inkscape:connector-curvature="0"
         id="path3718"
         d="M 0,0 H 841.89 V 595.276 H 0 Z" />
    </clipPath>
    <clipPath
       id="clipPath3764"
       clipPathUnits="userSpaceOnUse">
      <path
         inkscape:connector-curvature="0"
         id="path3762"
         d="M 0,0 H 841.89 V 595.276 H 0 Z" />
    </clipPath>
    <clipPath
       id="clipPath3808"
       clipPathUnits="userSpaceOnUse">
      <path
         inkscape:connector-curvature="0"
         id="path3806"
         d="M 0,0 H 841.89 V 595.276 H 0 Z" />
    </clipPath>
    <clipPath
       id="clipPath3852"
       clipPathUnits="userSpaceOnUse">
      <path
         inkscape:connector-curvature="0"
         id="path3850"
         d="M 0,0 H 841.89 V 595.276 H 0 Z" />
    </clipPath>
    <clipPath
       id="clipPath3720-7"
       clipPathUnits="userSpaceOnUse">
      <path
         inkscape:connector-curvature="0"
         id="path3718-8"
         d="M 0,0 H 841.89 V 595.276 H 0 Z" />
    </clipPath>
  </defs>
  <sodipodi:namedview
     id="base"
     pagecolor="#ffffff"
     bordercolor="#666666"
     borderopacity="1.0"
     inkscape:pageopacity="0.0"
     inkscape:pageshadow="2"
     inkscape:zoom="1.4"
     inkscape:cx="221.28664"
     inkscape:cy="-50.877384"
     inkscape:document-units="mm"
     inkscape:current-layer="g3688"
     showgrid="false"
     inkscape:window-width="1920"
     inkscape:window-height="1017"
     inkscape:window-x="-8"
     inkscape:window-y="-8"
     inkscape:window-maximized="1" />
  <metadata
     id="metadata5">
    <rdf:RDF>
      <cc:Work
         rdf:about="">
        <dc:format>image/svg+xml</dc:format>
        <dc:type
           rdf:resource="http://purl.org/dc/dcmitype/StillImage" />
        <dc:title></dc:title>
      </cc:Work>
    </rdf:RDF>
  </metadata>
  <g
     inkscape:label="Calque 1"
     inkscape:groupmode="layer"
     id="layer1"
     transform="translate(-38.103159,-96.218691)">
    <g
       transform="matrix(0.35277777,0,0,-0.35277777,-43.303791,252.39505)"
       inkscape:label="Propale identite DeepLime2 - 200917"
       id="g3688">
      <g
         transform="translate(15.198663,-19.343342)"
         id="g3714">
        <g
           clip-path="url(#clipPath3720-7)"
           id="g3716">
          <g
             transform="translate(235.7002,462.0474)"
             id="g3722">
            <path
               inkscape:connector-curvature="0"
               id="path3724"
               style="fill:#4abf75;fill-opacity:1;fill-rule:nonzero;stroke:none"
               d="m 0,0 c 2.476,0 4.953,-0.166 7.346,-0.496 14.857,-1.898 26.743,-16.259 26.743,-33.428 0,-17.25 -11.803,-31.612 -26.743,-33.511 -2.393,-0.33 -4.87,-0.495 -7.428,-0.495 h -20.057 v 67.847 z m 6.438,-13.784 c -3.879,0.577 -8.089,0.908 -12.711,0.908 v -42.178 c 4.622,0 8.832,0.33 12.711,0.826 8.749,1.651 13.206,9.327 13.206,20.222 0,10.895 -4.457,18.571 -13.206,20.222" />
          </g>
          <g
             transform="translate(405.718,462.0474)"
             id="g3726">
            <path
               inkscape:connector-curvature="0"
               id="path3728"
               style="fill:#4abf75;fill-opacity:1;fill-rule:nonzero;stroke:none"
               d="m 0,0 c 15.682,-0.248 22.615,-10.482 22.615,-20.553 0,-12.545 -11.142,-19.644 -21.955,-20.551 -4.87,-0.331 -9.574,-0.331 -13.537,-0.413 V -67.93 h -13.866 v 67.847 z m 0.247,-28.806 c 5.035,0.66 8.089,3.467 8.089,8.006 0,4.87 -1.981,7.263 -7.758,8.007 -4.128,0.577 -8.667,0.742 -13.455,0.742 v -17.415 c 4.375,0 8.998,0.164 13.124,0.66" />
          </g>
        </g>
      </g>
      <g
         transform="translate(464.49277,387.48575)"
         id="g3730"
         style="fill:#b3e189;fill-opacity:1">
        <path
           inkscape:connector-curvature="0"
           id="path3732"
           style="fill:#b3e189;fill-opacity:1;fill-rule:nonzero;stroke:none"
           d="M 0,0 H 26.743 V -12.711 H -13.866 V 55.218 H 0 Z" />
      </g>
      <path
         inkscape:connector-curvature="0"
         id="path3734"
         style="fill:#b3e189;fill-opacity:1;fill-rule:nonzero;stroke:none;stroke-width:0.99999994"
         d="m 512.36167,374.77465 h -13.866 v 67.93 h 13.866 z" />
      <g
         transform="translate(551.97926,375.02235)"
         id="g3736"
         style="fill:#b3e189;fill-opacity:1">
        <path
           inkscape:connector-curvature="0"
           id="path3738"
           style="fill:#b3e189;fill-opacity:1;fill-rule:nonzero;stroke:none"
           d="m 0,0 -16.425,39.206 -0.166,-39.454 h -13.784 v 67.93 h 16.673 L 3.961,24.844 21.46,67.682 H 38.215 V -0.248 H 24.431 L 24.349,39.206 7.841,0 Z" />
      </g>
      <path
         inkscape:connector-curvature="0"
         id="path3740"
         style="fill:#4abf75;fill-opacity:1;fill-rule:nonzero;stroke:none;stroke-width:0.99999994"
         d="m 292.32867,429.99365 h 43.433 v 12.71 h -43.433 z" />
      <path
         inkscape:connector-curvature="0"
         id="path3742"
         style="fill:#4abf75;fill-opacity:1;fill-rule:nonzero;stroke:none;stroke-width:0.99999994"
         d="m 292.32867,374.77465 h 43.433 v 12.71 h -43.433 z" />
      <path
         inkscape:connector-curvature="0"
         id="path3744"
         style="fill:#4abf75;fill-opacity:1;fill-rule:nonzero;stroke:none;stroke-width:0.99999994"
         d="m 292.32867,402.41465 h 23.109 v 12.711 h -23.109 z" />
      <path
         inkscape:connector-curvature="0"
         id="path3746"
         style="fill:#4abf75;fill-opacity:1;fill-rule:nonzero;stroke:none;stroke-width:0.99999994"
         d="m 343.25067,429.99265 h 43.43299 v 12.71 h -43.43299 z" />
      <path
         inkscape:connector-curvature="0"
         id="path3748"
         style="fill:#4abf75;fill-opacity:1;fill-rule:nonzero;stroke:none;stroke-width:0.99999994"
         d="m 343.25067,374.77465 h 43.43299 v 12.71 h -43.43299 z" />
      <path
         inkscape:connector-curvature="0"
         id="path3750"
         style="fill:#4abf75;fill-opacity:1;fill-rule:nonzero;stroke:none;stroke-width:0.99999994"
         d="m 343.25067,402.41465 h 23.109 v 12.71 h -23.109 z" />
      <path
         inkscape:connector-curvature="0"
         id="path3752"
         style="fill:#b3e189;fill-opacity:1;fill-rule:nonzero;stroke:none;stroke-width:0.99999994"
         d="m 598.09466,429.99265 h 43.43301 v 12.71 h -43.43301 z" />
      <path
         inkscape:connector-curvature="0"
         id="path3754"
         style="fill:#b3e189;fill-opacity:1;fill-rule:nonzero;stroke:none;stroke-width:0.99999994"
         d="m 598.09466,374.77465 h 43.43301 v 12.71 h -43.43301 z" />
      <path
         inkscape:connector-curvature="0"
         id="path3756"
         style="fill:#b3e189;fill-opacity:1;fill-rule:nonzero;stroke:none;stroke-width:0.99999994"
         d="m 598.09466,402.41465 h 23.109 v 12.71 h -23.109 z" />
    </g>
  </g>
</svg>
